<svg width="248" height="142" viewBox="0 0 248 142" fill="none" xmlns="http://www.w3.org/2000/svg">
<path opacity="0.6" fill-rule="evenodd" clip-rule="evenodd" d="M0 1.58289V0.828857H280V1.58289H0ZM0 31.6262V30.8649H280V31.6262H0ZM0 61.6623V60.9083H280V61.6623H0ZM0 91.7056V90.9443H280V91.7056H0ZM0 121.741V120.987H280V121.741H0ZM0 151.778V151.024H280V151.778L0 151.778Z" fill="#445E91"/>
<path d="M0.057373 113.243C0.057373 112.03 1.04062 111.047 2.25352 111.047H14.8876C16.1005 111.047 17.0837 112.03 17.0837 113.243V141.793H0.057373V113.243Z" fill="#2B4678"/>
<path d="M17.8157 102.994C17.8157 101.781 18.7989 100.798 20.0118 100.798H32.6459C33.8588 100.798 34.842 101.781 34.842 102.994V141.793H17.8157V102.994Z" fill="#2B4678"/>
<path d="M35.5742 86.8891C35.5742 85.6762 36.5575 84.6929 37.7704 84.6929H50.4044C51.6173 84.6929 52.6005 85.6762 52.6005 86.8891V141.793H35.5742V86.8891Z" fill="#2B4678"/>
<path d="M53.3325 108.119C53.3325 106.906 54.3158 105.922 55.5287 105.922H68.1627C69.3756 105.922 70.3589 106.906 70.3589 108.119V141.793H53.3325V108.119Z" fill="#2B4678"/>
<path d="M71.0908 45.8943C71.0908 44.6814 72.0741 43.6981 73.287 43.6981H85.921C87.1339 43.6981 88.1172 44.6814 88.1172 45.8943V141.793H71.0908V45.8943Z" fill="#2B4678"/>
<path d="M88.8494 2.70335C88.8494 1.49045 89.8326 0.507202 91.0455 0.507202H103.68C104.892 0.507202 105.876 1.49045 105.876 2.70335V141.793H88.8494V2.70335Z" fill="#96ABDC"/>
<path d="M106.608 26.1289C106.608 24.916 107.591 23.9327 108.804 23.9327H121.438C122.651 23.9327 123.634 24.916 123.634 26.1289V141.793H106.608V26.1289Z" fill="#2B4678"/>
<path d="M124.366 44.4302C124.366 43.2173 125.349 42.234 126.562 42.234H139.196C140.409 42.234 141.392 43.2173 141.392 44.4302V141.793H124.366V44.4302Z" fill="#2B4678"/>
<path d="M142.125 73.7122C142.125 72.4993 143.108 71.5161 144.321 71.5161H156.955C158.168 71.5161 159.151 72.4993 159.151 73.7122V141.793H142.125V73.7122Z" fill="#2B4678"/>
<path d="M159.883 49.5545C159.883 48.3416 160.866 47.3584 162.079 47.3584H174.713C175.926 47.3584 176.909 48.3416 176.909 49.5545V141.793H159.883V49.5545Z" fill="#2B4678"/>
<path d="M177.641 49.5545C177.641 48.3416 178.624 47.3584 179.837 47.3584H192.471C193.684 47.3584 194.667 48.3416 194.667 49.5545V141.793H177.641V49.5545Z" fill="#2B4678"/>
<path d="M195.399 90.5494C195.399 89.3365 196.383 88.3532 197.596 88.3532H210.23C211.442 88.3532 212.426 89.3365 212.426 90.5494V141.793H195.399V90.5494Z" fill="#2B4678"/>
<path d="M213.158 90.5494C213.158 89.3365 214.141 88.3532 215.354 88.3532H227.988C229.201 88.3532 230.184 89.3365 230.184 90.5494V141.793H213.158V90.5494Z" fill="#2B4678"/>
<path d="M230.916 90.5494C230.916 89.3365 231.9 88.3532 233.112 88.3532H245.746C246.959 88.3532 247.943 89.3365 247.943 90.5494V141.793H230.916V90.5494Z" fill="#2B4678"/>
</svg>
