<svg xmlns="http://www.w3.org/2000/svg" width="205" height="50" viewBox="0 0 205 50" fill="none">
  <path d="M102.366 25.368C120.885 -8.70352 166.391 6.11812 202.244 25.3681" stroke="#052049" stroke-width="9"/>
  <path d="M102.878 25C84.3596 59.0716 38.8537 44.2499 3 25" stroke="#052049" stroke-width="9"/>
  <path d="M164.598 32.868C152.561 44.607 120.354 46.3324 102.622 25.3681" stroke="#F48024" stroke-width="9"/>
  <path d="M40.9026 17.3679C52.9393 5.62892 84.8907 4.40363 102.622 25.368" stroke="#F48024" stroke-width="9"/>
  <line x1="180.885" y1="17.368" x2="180.885" y2="24.868" stroke="#052049" stroke-width="8.5"/>
  <line x1="116.86" y1="11.868" x2="116.86" y2="24.868" stroke="#052049" stroke-width="8.5"/>
  <line x1="149.128" y1="8.86804" x2="149.128" y2="24.868" stroke="#052049" stroke-width="8.5"/>
  <line x1="149.128" y1="24.868" x2="149.128" y2="40.868" stroke="#F48024" stroke-width="8.5"/>
  <line x1="133.25" y1="24.868" x2="133.25" y2="40.868" stroke="#F48024" stroke-width="8.5"/>
  <line x1="116.86" y1="24.868" x2="116.86" y2="36.368" stroke="#F48024" stroke-width="8.5"/>
  <line x1="133.25" y1="8.86804" x2="133.25" y2="24.868" stroke="#052049" stroke-width="8.5"/>
  <line x1="164.494" y1="12.368" x2="164.494" y2="24.868" stroke="#052049" stroke-width="8.5"/>
  <line y1="-4.25" x2="7.5" y2="-4.25" transform="matrix(-0.0140616 -0.999901 0.99991 -0.0134 26.6665 33.2944)" stroke="#052049" stroke-width="8.5"/>
  <line y1="-4.25" x2="16.4309" y2="-4.25" transform="matrix(-0.000366009 -1 1 -0.000348786 90.5857 41.368)" stroke="#052049" stroke-width="8.5"/>
  <line y1="-4.25" x2="16" y2="-4.25" transform="matrix(-0.0140615 -0.999901 0.99991 -0.0133999 58.5393 41.368)" stroke="#052049" stroke-width="8.5"/>
  <line y1="-4.25" x2="16" y2="-4.25" transform="matrix(-0.0140615 -0.999901 0.99991 -0.0133999 58.3142 25.3695)" stroke="#F48024" stroke-width="8.5"/>
  <line y1="-4.25" x2="16" y2="-4.25" transform="matrix(-0.0140615 -0.999901 0.99991 -0.0133999 74.1909 25.1567)" stroke="#F48024" stroke-width="8.5"/>
  <line y1="-4.25" x2="11.5" y2="-4.25" transform="matrix(-0.0140615 -0.999901 0.99991 -0.0133999 90.5796 24.9371)" stroke="#F48024" stroke-width="8.5"/>
  <line y1="-4.25" x2="16" y2="-4.25" transform="matrix(-0.0140616 -0.999901 0.99991 -0.0134 74.416 41.1553)" stroke="#052049" stroke-width="8.5"/>
  <line y1="-4.25" x2="12.5" y2="-4.25" transform="matrix(-0.0140615 -0.999901 0.99991 -0.0133999 43.1257 38.0742)" stroke="#052049" stroke-width="8.5"/>
</svg>