<svg width="135" height="204" viewBox="0 0 135 204" fill="none" xmlns="http://www.w3.org/2000/svg">
<path d="M67.4313 102.69C45.0332 69.1514 80.7037 34.4386 115.778 10.754" stroke="white" stroke-width="9.36"/>
<path d="M67.3406 102.041C89.7388 135.579 54.0683 170.292 18.9937 193.977" stroke="white" stroke-width="9.36"/>
<path d="M104.459 49.0372C109.438 65.799 95.4363 96.2807 67.5559 102.454" stroke="#F48024" stroke-width="9.36"/>
<path d="M30.316 155.394C25.3369 138.632 39.6754 108.628 67.5558 102.454" stroke="#F48024" stroke-width="9.36"/>
<line x1="98.0751" y1="26.5428" x2="104.979" y2="30.1732" stroke="white" stroke-width="8.84"/>
<line x1="62.0214" y1="82.8139" x2="73.9876" y2="89.1067" stroke="white" stroke-width="8.84"/>
<line x1="74.8793" y1="51.6592" x2="89.607" y2="59.4042" stroke="white" stroke-width="8.84"/>
<line x1="89.6068" y1="59.4042" x2="104.335" y2="67.1492" stroke="#F48024" stroke-width="8.84"/>
<line x1="81.921" y1="74.0197" x2="96.6487" y2="81.7646" stroke="#F48024" stroke-width="8.84"/>
<line x1="73.9874" y1="89.1067" x2="84.573" y2="94.6734" stroke="#F48024" stroke-width="8.84"/>
<line x1="67.1937" y1="66.2748" x2="81.9214" y2="74.0198" stroke="white" stroke-width="8.84"/>
<line x1="85.5389" y1="39.2094" x2="97.045" y2="45.2601" stroke="white" stroke-width="8.84"/>
<line y1="-4.42" x2="7.8" y2="-4.42" transform="matrix(-0.891537 -0.452949 0.453538 -0.891237 38.0845 176.207)" stroke="white" stroke-width="8.84"/>
<line y1="-4.42" x2="17.0881" y2="-4.42" transform="matrix(-0.88525 -0.465116 0.465131 -0.885242 76.457 121.279)" stroke="white" stroke-width="8.84"/>
<line y1="-4.42" x2="16.64" y2="-4.42" transform="matrix(-0.891537 -0.452949 0.453538 -0.891237 60.9446 150.777)" stroke="white" stroke-width="8.84"/>
<line y1="-4.42" x2="16.64" y2="-4.42" transform="matrix(-0.891537 -0.452949 0.453538 -0.891237 46.1091 143.24)" stroke="#F48024" stroke-width="8.84"/>
<line y1="-4.42" x2="16.64" y2="-4.42" transform="matrix(-0.891537 -0.452949 0.453538 -0.891237 53.5986 128.523)" stroke="#F48024" stroke-width="8.84"/>
<line y1="-4.42" x2="11.96" y2="-4.42" transform="matrix(-0.891537 -0.452949 0.453538 -0.891237 61.3296 113.331)" stroke="#F48024" stroke-width="8.84"/>
<line y1="-4.42" x2="16.64" y2="-4.42" transform="matrix(-0.891537 -0.452949 0.453538 -0.891237 68.4338 136.06)" stroke="white" stroke-width="8.84"/>
<line y1="-4.42" x2="13" y2="-4.42" transform="matrix(-0.891537 -0.452949 0.453538 -0.891237 50.4514 163.37)" stroke="white" stroke-width="8.84"/>
</svg>
