<svg xmlns="http://www.w3.org/2000/svg" width="411" height="63" viewBox="0 0 411 63" fill="none">
  <path d="M0.732178 61.5094V0H26.9214C38.5467 0 48.0543 5.10469 48.2704 17.8875C48.0975 26.5781 43.5166 31.8516 36.8612 34.2141L51.0363 61.5094H39.7135L26.5325 35.6484H10.7152V61.5094H0.732178ZM10.7152 26.0719L28.9526 25.9875C36.0401 25.4391 38.0713 23.3719 38.2009 17.8875C38.0713 11.8125 35.5647 9.66094 26.4893 9.66094H10.7152V26.0719Z" fill="black"/>
  <path d="M62.4454 61.5094V0H70.3973L101.643 42.0187V0H111.626V61.5094H103.717L72.5149 19.4906V61.5094H62.4454Z" fill="black"/>
  <path d="M121.998 61.5094L146.718 0H153.762L178.482 61.5094H167.678L162.146 47.5875H138.377L132.888 61.5094H121.998ZM142.353 37.9266H158.257L150.262 17.9297L142.353 37.9266Z" fill="black"/>
  <path d="M187.514 61.8469V14.0484H197.497V61.8469H187.514ZM186.736 5.61094C186.736 2.53125 189.416 0.0421875 192.484 0.0421875C195.682 0.0421875 198.275 2.57344 198.275 5.61094C198.275 8.73281 195.725 11.3062 192.484 11.3062C189.416 11.3062 186.736 8.775 186.736 5.61094Z" fill="black"/>
  <path d="M213.012 61.2984V0.084375H236.392C247.845 0.084375 256.704 5.69531 256.704 17.5078C256.704 22.5281 254.889 27.1266 250.654 29.9531C255.451 32.1047 259.081 36.4078 259.081 44.0859C259.081 56.3625 250.265 61.2984 238.639 61.2984H213.012ZM218.717 55.8562H238.164C248.968 55.8562 253.247 52.0594 253.247 44.1703C253.247 36.0703 249.055 33.2016 237.732 33.2016H218.717V55.8562ZM218.717 27.8437H237.645C246.289 27.8437 250.826 25.3547 250.826 17.5078C250.826 9.15469 245.252 5.56875 236.133 5.56875H218.717V27.8437Z" fill="black"/>
  <path d="M288.252 62.3109C279.825 62.3109 271.614 57.6703 271.614 49.0219C271.614 37.5469 283.887 34.9734 304.069 32.2312V31.6828C304.069 21.3469 298.926 19.575 292.055 19.575C282.245 19.575 278.226 25.9875 279.177 31.3875H273.169C272.435 22.0641 280.473 14.0484 292.055 14.0484C302.168 14.0484 309.774 18.5203 309.774 31.3453C309.774 34.1297 309.774 40.2047 309.687 43.9172C309.601 50.2875 309.86 55.5609 310.379 61.2984H304.458L304.285 55.9828C300.353 60.2016 294.518 62.3109 288.252 62.3109ZM277.491 48.7266C277.491 53.8312 281.467 56.8266 288.555 56.8266C295.858 56.8266 304.156 53.0297 304.156 41.0062V37.7156C284.319 40.3734 277.491 42.6937 277.491 48.7266Z" fill="black"/>
  <path d="M340.803 62.3109C328.4 62.3109 321.875 55.2234 320.794 45.0984H326.672C327.882 52.7766 331.685 56.8266 340.89 56.8266C346.724 56.8266 353.725 54.675 353.725 48.6C353.725 42.9469 348.453 41.3437 342.316 40.2891L336.05 39.1922C329.092 37.9266 322.004 34.6781 322.004 26.5359C322.004 17.8031 332.419 14.1328 339.896 14.1328C350.095 14.1328 357.658 18.9422 358.695 29.2781H352.861C351.564 21.6844 346.81 19.6594 339.809 19.6594C335.056 19.6594 327.925 21.5156 327.925 26.5359C327.925 30.7547 330.864 32.5266 337.216 33.6234L343.137 34.6781C349.706 35.9016 359.689 38.5172 359.689 48.3469C359.689 58.0922 349.965 62.3109 340.803 62.3109Z" fill="black"/>
  <path d="M389.941 62.3109C376.414 62.3109 367.9 52.3125 367.9 38.1375C367.9 23.7937 376.5 14.1328 389.768 14.1328C403.511 14.1328 411.765 24.9328 410.944 39.6141H373.951C374.469 51.6797 381.729 56.8266 389.941 56.8266C398.541 56.8266 403.727 53.1984 404.98 44.8453H410.728C409.777 55.6875 401.523 62.3109 389.941 62.3109ZM374.08 34.0875H404.894C404.116 25.8187 398.8 19.6594 389.681 19.6594C380.779 19.6594 375.377 24.9328 374.08 34.0875Z" fill="black"/>
</svg>